<mxfile host="app.diagrams.net" modified="2023-10-03T16:41:51.990Z" agent="Mozilla/5.0 (Windows NT 10.0; Win64; x64) AppleWebKit/537.36 (KHTML, like Gecko) Chrome/117.0.0.0 Safari/537.36" etag="91HzfrUvXODB3Q5iiSgI" version="22.0.2" type="github">
  <diagram name="PÃ¡gina-1" id="FAyKTqM0oPEEgQscZbqY">
    <mxGraphModel dx="1687" dy="882" grid="1" gridSize="10" guides="1" tooltips="1" connect="1" arrows="1" fold="1" page="1" pageScale="1" pageWidth="827" pageHeight="1169" math="0" shadow="0">
      <root>
        <mxCell id="0" />
        <mxCell id="1" parent="0" />
        <mxCell id="URk4r4SbivihlPZpY_Re-33" style="edgeStyle=orthogonalEdgeStyle;rounded=0;orthogonalLoop=1;jettySize=auto;html=1;" edge="1" parent="1" source="URk4r4SbivihlPZpY_Re-1">
          <mxGeometry relative="1" as="geometry">
            <mxPoint x="340" y="90" as="targetPoint" />
          </mxGeometry>
        </mxCell>
        <mxCell id="URk4r4SbivihlPZpY_Re-1" value="" style="rounded=1;arcSize=10;dashed=1;dashPattern=8 3 1 3;strokeWidth=2;strokeColor=#FF3333;" vertex="1" parent="1">
          <mxGeometry x="50" y="20" width="150" height="140" as="geometry" />
        </mxCell>
        <mxCell id="URk4r4SbivihlPZpY_Re-4" value="" style="sketch=0;html=1;dashed=0;whitespace=wrap;fillColor=#2875E2;strokeColor=#ffffff;points=[[0.005,0.63,0],[0.1,0.2,0],[0.9,0.2,0],[0.5,0,0],[0.995,0.63,0],[0.72,0.99,0],[0.5,1,0],[0.28,0.99,0]];verticalLabelPosition=bottom;align=center;verticalAlign=top;shape=mxgraph.kubernetes.icon;prIcon=api" vertex="1" parent="1">
          <mxGeometry x="85" y="60" width="80" height="58" as="geometry" />
        </mxCell>
        <mxCell id="URk4r4SbivihlPZpY_Re-5" value="" style="rounded=1;whiteSpace=wrap;html=1;" vertex="1" parent="1">
          <mxGeometry x="340" y="620" width="620" height="130" as="geometry" />
        </mxCell>
        <mxCell id="URk4r4SbivihlPZpY_Re-6" value="" style="sketch=0;points=[[0,0,0],[0.25,0,0],[0.5,0,0],[0.75,0,0],[1,0,0],[0,1,0],[0.25,1,0],[0.5,1,0],[0.75,1,0],[1,1,0],[0,0.25,0],[0,0.5,0],[0,0.75,0],[1,0.25,0],[1,0.5,0],[1,0.75,0]];outlineConnect=0;fontColor=#232F3E;fillColor=#7AA116;strokeColor=#ffffff;dashed=0;verticalLabelPosition=bottom;verticalAlign=top;align=center;html=1;fontSize=12;fontStyle=0;aspect=fixed;shape=mxgraph.aws4.resourceIcon;resIcon=mxgraph.aws4.s3;" vertex="1" parent="1">
          <mxGeometry x="386" y="640" width="78" height="78" as="geometry" />
        </mxCell>
        <mxCell id="URk4r4SbivihlPZpY_Re-7" value="" style="sketch=0;points=[[0,0,0],[0.25,0,0],[0.5,0,0],[0.75,0,0],[1,0,0],[0,1,0],[0.25,1,0],[0.5,1,0],[0.75,1,0],[1,1,0],[0,0.25,0],[0,0.5,0],[0,0.75,0],[1,0.25,0],[1,0.5,0],[1,0.75,0]];outlineConnect=0;fontColor=#232F3E;fillColor=#7AA116;strokeColor=#ffffff;dashed=0;verticalLabelPosition=bottom;verticalAlign=top;align=center;html=1;fontSize=12;fontStyle=0;aspect=fixed;shape=mxgraph.aws4.resourceIcon;resIcon=mxgraph.aws4.s3;" vertex="1" parent="1">
          <mxGeometry x="620" y="656" width="78" height="78" as="geometry" />
        </mxCell>
        <mxCell id="URk4r4SbivihlPZpY_Re-8" value="" style="sketch=0;points=[[0,0,0],[0.25,0,0],[0.5,0,0],[0.75,0,0],[1,0,0],[0,1,0],[0.25,1,0],[0.5,1,0],[0.75,1,0],[1,1,0],[0,0.25,0],[0,0.5,0],[0,0.75,0],[1,0.25,0],[1,0.5,0],[1,0.75,0]];outlineConnect=0;fontColor=#232F3E;fillColor=#7AA116;strokeColor=#ffffff;dashed=0;verticalLabelPosition=bottom;verticalAlign=top;align=center;html=1;fontSize=12;fontStyle=0;aspect=fixed;shape=mxgraph.aws4.resourceIcon;resIcon=mxgraph.aws4.s3;" vertex="1" parent="1">
          <mxGeometry x="840" y="656" width="78" height="78" as="geometry" />
        </mxCell>
        <mxCell id="URk4r4SbivihlPZpY_Re-32" style="edgeStyle=orthogonalEdgeStyle;rounded=0;orthogonalLoop=1;jettySize=auto;html=1;" edge="1" parent="1" source="URk4r4SbivihlPZpY_Re-14" target="URk4r4SbivihlPZpY_Re-20">
          <mxGeometry relative="1" as="geometry" />
        </mxCell>
        <mxCell id="URk4r4SbivihlPZpY_Re-14" value="" style="rounded=1;arcSize=10;dashed=1;dashPattern=8 3 1 3;strokeWidth=2;strokeColor=#FF3333;glass=0;shadow=0;fillColor=#FFFFFF;" vertex="1" parent="1">
          <mxGeometry x="50.2" y="215" width="150" height="140" as="geometry" />
        </mxCell>
        <mxCell id="URk4r4SbivihlPZpY_Re-17" value="" style="image;aspect=fixed;html=1;points=[];align=center;fontSize=12;image=img/lib/azure2/databases/Azure_Database_MySQL_Server.svg;" vertex="1" parent="1">
          <mxGeometry x="101.2" y="250" width="48" height="64" as="geometry" />
        </mxCell>
        <mxCell id="URk4r4SbivihlPZpY_Re-18" value="" style="rounded=1;arcSize=10;dashed=1;dashPattern=8 3 1 3;strokeWidth=2;strokeColor=#FF3333;glass=0;shadow=0;fillColor=#FFFFFF;" vertex="1" parent="1">
          <mxGeometry x="50" y="406" width="150" height="140" as="geometry" />
        </mxCell>
        <mxCell id="URk4r4SbivihlPZpY_Re-35" style="edgeStyle=orthogonalEdgeStyle;rounded=0;orthogonalLoop=1;jettySize=auto;html=1;" edge="1" parent="1" source="URk4r4SbivihlPZpY_Re-20">
          <mxGeometry relative="1" as="geometry">
            <mxPoint x="410" y="610" as="targetPoint" />
          </mxGeometry>
        </mxCell>
        <mxCell id="URk4r4SbivihlPZpY_Re-20" value="" style="rounded=1;whiteSpace=wrap;html=1;" vertex="1" parent="1">
          <mxGeometry x="350" y="20" width="120" height="530" as="geometry" />
        </mxCell>
        <mxCell id="URk4r4SbivihlPZpY_Re-22" value="" style="outlineConnect=0;dashed=0;verticalLabelPosition=bottom;verticalAlign=top;align=center;html=1;shape=mxgraph.aws3.elasticache;fillColor=#2E73B8;gradientColor=none;" vertex="1" parent="1">
          <mxGeometry x="381.5" y="231.5" width="67.5" height="81" as="geometry" />
        </mxCell>
        <mxCell id="URk4r4SbivihlPZpY_Re-23" value="" style="sketch=0;points=[[0,0,0],[0.25,0,0],[0.5,0,0],[0.75,0,0],[1,0,0],[0,1,0],[0.25,1,0],[0.5,1,0],[0.75,1,0],[1,1,0],[0,0.25,0],[0,0.5,0],[0,0.75,0],[1,0.25,0],[1,0.5,0],[1,0.75,0]];outlineConnect=0;fontColor=#232F3E;fillColor=#E7157B;strokeColor=#ffffff;dashed=0;verticalLabelPosition=bottom;verticalAlign=top;align=center;html=1;fontSize=12;fontStyle=0;aspect=fixed;shape=mxgraph.aws4.resourceIcon;resIcon=mxgraph.aws4.api_gateway;" vertex="1" parent="1">
          <mxGeometry x="371" y="51" width="78" height="78" as="geometry" />
        </mxCell>
        <mxCell id="URk4r4SbivihlPZpY_Re-24" value="" style="dashed=0;outlineConnect=0;html=1;align=center;labelPosition=center;verticalLabelPosition=bottom;verticalAlign=top;shape=mxgraph.webicons.mongodb;gradientColor=#DFDEDE" vertex="1" parent="1">
          <mxGeometry x="74" y="428" width="102.4" height="102.4" as="geometry" />
        </mxCell>
        <mxCell id="URk4r4SbivihlPZpY_Re-25" value="" style="sketch=0;points=[[0,0,0],[0.25,0,0],[0.5,0,0],[0.75,0,0],[1,0,0],[0,1,0],[0.25,1,0],[0.5,1,0],[0.75,1,0],[1,1,0],[0,0.25,0],[0,0.5,0],[0,0.75,0],[1,0.25,0],[1,0.5,0],[1,0.75,0]];outlineConnect=0;fontColor=#232F3E;fillColor=#E7157B;strokeColor=#ffffff;dashed=0;verticalLabelPosition=bottom;verticalAlign=top;align=center;html=1;fontSize=12;fontStyle=0;aspect=fixed;shape=mxgraph.aws4.resourceIcon;resIcon=mxgraph.aws4.eventbridge;" vertex="1" parent="1">
          <mxGeometry x="360" y="440" width="49" height="49" as="geometry" />
        </mxCell>
        <mxCell id="URk4r4SbivihlPZpY_Re-26" value="" style="sketch=0;points=[[0,0,0],[0.25,0,0],[0.5,0,0],[0.75,0,0],[1,0,0],[0,1,0],[0.25,1,0],[0.5,1,0],[0.75,1,0],[1,1,0],[0,0.25,0],[0,0.5,0],[0,0.75,0],[1,0.25,0],[1,0.5,0],[1,0.75,0]];outlineConnect=0;fontColor=#232F3E;fillColor=#ED7100;strokeColor=#ffffff;dashed=0;verticalLabelPosition=bottom;verticalAlign=top;align=center;html=1;fontSize=12;fontStyle=0;aspect=fixed;shape=mxgraph.aws4.resourceIcon;resIcon=mxgraph.aws4.lambda;" vertex="1" parent="1">
          <mxGeometry x="414" y="440" width="50" height="50" as="geometry" />
        </mxCell>
        <mxCell id="URk4r4SbivihlPZpY_Re-27" value="" style="rounded=1;whiteSpace=wrap;html=1;fillColor=none;" vertex="1" parent="1">
          <mxGeometry x="352" y="430" width="116" height="70" as="geometry" />
        </mxCell>
        <mxCell id="URk4r4SbivihlPZpY_Re-34" style="edgeStyle=orthogonalEdgeStyle;rounded=0;orthogonalLoop=1;jettySize=auto;html=1;entryX=-0.014;entryY=0.866;entryDx=0;entryDy=0;entryPerimeter=0;" edge="1" parent="1" source="URk4r4SbivihlPZpY_Re-18" target="URk4r4SbivihlPZpY_Re-20">
          <mxGeometry relative="1" as="geometry" />
        </mxCell>
        <mxCell id="URk4r4SbivihlPZpY_Re-36" value="BRONZE" style="text;html=1;strokeColor=none;fillColor=none;align=center;verticalAlign=middle;whiteSpace=wrap;rounded=0;" vertex="1" parent="1">
          <mxGeometry x="395" y="720" width="60" height="30" as="geometry" />
        </mxCell>
      </root>
    </mxGraphModel>
  </diagram>
</mxfile>
